<svg width="100" height="100" viewBox="0 0 100 100" fill="none" xmlns="http://www.w3.org/2000/svg">
  <!-- Main mosque building -->
  <rect x="10" y="60" width="80" height="30" fill="#1f5f3f" rx="2"/>
  
  <!-- Left minaret -->
  <rect x="20" y="50" width="10" height="30" fill="#2d8a4f"/>
  <circle cx="25" cy="45" r="8" fill="#1f5f3f"/>
  <rect x="24" y="37" width="2" height="15" fill="#2d8a4f"/>
  
  <!-- Right minaret -->
  <rect x="70" y="50" width="10" height="30" fill="#2d8a4f"/>
  <circle cx="75" cy="45" r="8" fill="#1f5f3f"/>
  <rect x="74" y="37" width="2" height="15" fill="#2d8a4f"/>
  
  <!-- Main dome -->
  <path d="M30 60 L50 40 L70 60" fill="#1f5f3f"/>
  
  <!-- Entrance door -->
  <rect x="45" y="65" width="10" height="20" fill="#8B4513"/>
  
  <!-- Crescent moon on top -->
  <circle cx="50" cy="30" r="12" fill="#FFD700"/>
  <path d="M50 18 L52 26 L50 30 L48 26 Z" fill="#FFD700"/>
  
  <!-- Windows -->
  <rect x="35" y="65" width="6" height="8" fill="#4a90e2" rx="1"/>
  <rect x="59" y="65" width="6" height="8" fill="#4a90e2" rx="1"/>
  
  <!-- Decorative elements -->
  <circle cx="25" cy="50" r="2" fill="#FFD700"/>
  <circle cx="75" cy="50" r="2" fill="#FFD700"/>
  
  <!-- Arabic calligraphy style decoration -->
  <path d="M40 75 Q50 70 60 75" stroke="#FFD700" stroke-width="2" fill="none"/>
</svg>
